<?xml version="1.0" encoding="UTF-8"?>
<svg width="200px" height="200px" viewBox="0 0 200 200" version="1.1" xmlns="http://www.w3.org/2000/svg" xmlns:xlink="http://www.w3.org/1999/xlink">
    <!-- Generator: Sketch 48.2 (47327) - http://www.bohemiancoding.com/sketch -->
    <title>2</title>
    <desc>Created with Sketch.</desc>
    <defs></defs>
    <g id="Page-1" stroke="none" stroke-width="1" fill="none" fill-rule="evenodd">
        <g id="2">
            <circle id="Oval-Copy" fill="#EAFF00" cx="100" cy="100" r="100"></circle>
            <path d="M120.416016,137 L74.1064453,137 L75.7983398,126.365234 L100.64502,102.582031 C103.738785,99.2949054 106.091301,96.3623176 107.702637,93.7841797 C109.313973,91.2060418 110.28076,88.9663181 110.603027,87.0649414 C111.054201,84.2612165 110.828618,82.0778887 109.92627,80.5148926 C109.023921,78.9518965 107.380383,78.1704102 104.995605,78.1704102 C102.997549,78.1704102 101.225105,79.217763 99.6782227,81.3125 C98.1313399,83.407237 97.1001002,86.0497887 96.5844727,89.2402344 L80.8256836,89.2402344 L80.7290039,88.9501953 C81.6635789,82.1825833 84.5397708,76.5993872 89.357666,72.2004395 C94.1755612,67.8014917 100.048793,65.6020508 106.977539,65.6020508 C114.035192,65.6020508 119.368634,67.5195121 122.978027,71.3544922 C126.58742,75.1894723 127.87647,80.377897 126.845215,86.9199219 C126.104,91.5605701 124.428236,95.5082845 121.817871,98.7631836 C119.207506,102.018083 114.37357,107.077602 107.315918,113.941895 L97.5512695,124.141602 L97.6962891,124.431641 L122.446289,124.431641 L120.416016,137 Z" fill="#000000"></path>
        </g>
    </g>
</svg>