<?xml version="1.0" encoding="UTF-8"?>
<svg width="200px" height="200px" viewBox="0 0 200 200" version="1.1" xmlns="http://www.w3.org/2000/svg" xmlns:xlink="http://www.w3.org/1999/xlink">
    <!-- Generator: Sketch 48.2 (47327) - http://www.bohemiancoding.com/sketch -->
    <title>3</title>
    <desc>Created with Sketch.</desc>
    <defs></defs>
    <g id="Page-1" stroke="none" stroke-width="1" fill="none" fill-rule="evenodd">
        <g id="3">
            <circle id="Oval" fill="#EAFF00" cx="100" cy="100" r="100"></circle>
            <path d="M94.1191406,99.3916016 L94.2158203,99.0048828 L94.8442383,94.9926758 L102.143555,94.9926758 C104.560559,94.9926758 106.590812,94.1950763 108.234375,92.5998535 C109.877938,91.0046307 110.941404,88.8213029 111.424805,86.0498047 C111.779299,83.7294806 111.465093,81.836189 110.482178,80.369873 C109.499263,78.9035571 107.863781,78.1704102 105.575684,78.1704102 C103.867667,78.1704102 102.208016,78.7827087 100.59668,80.0073242 C98.9853435,81.2319397 98.0346694,82.8110255 97.7446289,84.7446289 L82.0825195,84.7446289 L82.0341797,84.4545898 C82.7753943,78.6215529 85.5549076,74.0212571 90.3728027,70.6535645 C95.1906979,67.2858718 100.725555,65.6020508 106.977539,65.6020508 C113.906285,65.6020508 119.320293,67.3664374 123.219727,70.8952637 C127.11916,74.4240899 128.569341,79.3627612 127.570312,85.7114258 C127.022458,89.063005 125.620617,92.0681019 123.364746,94.7268066 C121.108875,97.3855113 118.289079,99.4721604 114.905273,100.986816 C118.127946,102.437019 120.512688,104.547838 122.05957,107.319336 C123.606453,110.090834 124.089847,113.410137 123.509766,117.277344 C122.414057,123.980502 119.288112,129.112531 114.131836,132.673584 C108.97556,136.234637 102.72367,138.015137 95.3759766,138.015137 C89.381806,138.015137 84.2981166,136.27492 80.1247559,132.794434 C75.9513951,129.313947 74.4609315,124.302767 75.6533203,117.760742 L75.7983398,117.470703 L91.6054688,117.470703 C91.2187481,119.823254 91.6457457,121.740715 92.8864746,123.223145 C94.1272035,124.705574 95.8110245,125.446777 97.9379883,125.446777 C100.322766,125.446777 102.401358,124.633065 104.173828,123.005615 C105.946298,121.378166 107.025877,119.355969 107.412598,116.938965 C107.960452,113.394025 107.61402,110.872322 106.373291,109.373779 C105.132562,107.875237 103.078139,107.125977 100.209961,107.125977 L92.9106445,107.125977 L94.1191406,99.3916016 Z" fill="#000000"></path>
        </g>
    </g>
</svg>