<?xml version="1.0" encoding="UTF-8"?>
<svg width="960px" height="960px" viewBox="0 0 960 960" version="1.1" xmlns="http://www.w3.org/2000/svg" xmlns:xlink="http://www.w3.org/1999/xlink">
    <!-- Generator: Sketch 48.2 (47327) - http://www.bohemiancoding.com/sketch -->
    <title>bg2</title>
    <desc>Created with Sketch.</desc>
    <defs></defs>
    <g id="Page-1" stroke="none" stroke-width="1" fill="none" fill-rule="evenodd">
        <g id="bg2" fill-rule="nonzero">
            <polygon id="Fill-1" fill="#FFFFFF" points="0 960 960 960 960 0 0 0"></polygon>
            <polygon id="Fill-2" fill="#FFE2D8" points="0 737 48.0875054 722.444047 42.0915596 602.639737 123.045324 626.5998 159.024997 509.790748 236.981288 554.717614 322.43476 448.390964 412.383942 527.761295 523.322433 448.390964 575.792706 524.767036 692.727142 460.370996 737.701233 544.234212 821.65447 488.824944 890.616342 634.087944 935.591433 593.653965 960 676.089442 960 143.390881 0 125"></polygon>
            <polygon id="Fill-3" fill="#FEBFAA" points="31.5280405 0 0.0001 0.60500383 0.0001 466.793401 4.61175094 451.218046 49.5868418 491.649474 118.547715 346.395642 202.500951 401.802412 247.476042 317.944488 364.410478 382.334467 416.880751 305.965212 527.819242 385.330533 617.768424 305.965212 703.220897 412.284153 781.177188 367.361121 817.156861 484.162801 898.112624 460.203252 892.115679 580 935.590534 551.547848 960.0001 532.246628 960.0001 0"></polygon>
            <g id="Group-14" transform="translate(34.000000, 181.489000)" fill="#FFFFFF">
                <path d="M357.0999,50.4033 C355.4679,50.4033 353.9129,50.6703 352.4869,51.1443 C353.3089,48.7133 353.7599,46.1013 353.7599,43.3763 C353.7599,30.4963 343.7629,20.0543 331.4309,20.0543 C320.3069,20.0543 311.0849,28.5533 309.3859,39.6723 C300.7749,40.5423 294.1029,46.5683 294.1029,53.8873 C294.1029,54.3513 294.1349,54.8093 294.1879,55.2623 C287.8289,55.5803 282.8209,58.9793 282.8209,63.1343 C282.8209,67.5003 288.3439,71.0383 295.1569,71.0383 C299.5509,71.0383 303.3979,69.5623 305.5829,67.3463 C307.4399,67.9013 309.4349,68.2203 311.5249,68.2203 C315.7919,68.2203 319.6959,66.9543 322.7249,64.8593 C325.3999,66.0433 328.3429,66.6983 331.4309,66.6983 C332.7229,66.6983 333.9859,66.5773 335.2179,66.3583 C337.3559,67.8203 340.1019,68.7013 343.0999,68.7013 C344.9869,68.7013 346.7679,68.3433 348.3669,67.7203 C350.5999,69.5613 353.6879,70.7013 357.0999,70.7013 C363.9129,70.7013 369.4359,66.1583 369.4359,60.5523 C369.4359,54.9473 363.9129,50.4033 357.0999,50.4033" id="Fill-4"></path>
                <path d="M145.1474,198.9471 C143.7554,195.0321 134.3064,194.7841 123.6454,198.2351 C123.5814,197.7771 123.4764,197.3281 123.3204,196.8911 C120.8694,189.9931 107.7734,188.2441 93.1854,192.5091 C86.6364,183.0391 68.4864,180.4761 50.0224,187.0381 C29.5504,194.3151 16.4524,210.0521 20.7664,222.1891 C21.6784,224.7561 23.3034,226.9511 25.4814,228.7561 C22.9554,229.1511 20.2854,229.8171 17.5754,230.7801 C6.2654,234.8011 -1.3816,242.3411 0.4954,247.6231 C2.3724,252.9041 13.0634,253.9271 24.3734,249.9071 C30.0374,247.8931 34.7824,244.9971 37.8724,241.9441 C40.7354,241.5871 43.8124,240.8751 46.9444,239.7611 C51.9214,237.9921 56.1854,235.5421 59.2444,232.9021 C61.3624,232.3831 63.5004,231.7511 65.6444,230.9891 C70.7694,229.1671 75.4324,226.8151 79.4764,224.1221 C85.2064,224.3091 92.1154,223.1941 99.1994,220.6761 C102.6724,219.4421 105.8994,217.9721 108.7974,216.3521 C113.1684,217.1421 120.0364,216.2611 127.3154,213.6741 C138.6254,209.6531 146.6094,203.0601 145.1474,198.9471" id="Fill-6"></path>
                <path d="M661.3955,46.0675 C661.5265,45.5755 661.6225,45.0735 661.6725,44.5605 C662.4895,36.2845 652.2505,28.4195 638.4195,26.3455 C635.8855,15.8475 625.5345,6.1035 611.3855,2.2355 C592.7305,-2.8655 574.5505,4.1785 570.7805,17.9685 C570.6485,18.4485 570.5415,18.9295 570.4485,19.4115 C563.9215,20.6195 559.1735,23.9875 558.7395,28.3925 C558.6555,29.2395 558.7495,30.0785 558.9775,30.9025 C550.5085,31.3065 543.8885,35.0845 543.3715,40.3265 C542.7615,46.5175 550.8865,52.3865 561.5195,53.4355 C566.8445,53.9615 571.7885,53.1775 575.4745,51.4865 C577.9025,52.4215 580.6425,53.0915 583.5875,53.3815 C588.4625,53.8625 593.0055,53.2375 596.5685,51.8335 C596.9545,51.9495 597.3395,52.0675 597.7315,52.1745 C604.5545,54.0395 611.3105,54.2745 617.3255,53.1555 C621.6105,55.4745 626.9865,57.1255 632.9205,57.7105 C636.1845,58.0325 639.3475,58.0055 642.3085,57.6775 C645.4825,60.4535 651.3155,62.6685 658.1595,63.3435 C668.7925,64.3925 677.7985,61.3345 678.2745,56.5125 C678.7265,51.9235 671.2825,47.3985 661.3955,46.0675" id="Fill-8"></path>
                <path d="M219.6945,65.1285 C214.6495,65.1285 209.9295,66.2675 205.8865,68.2435 C199.0765,61.7475 189.0065,57.6285 177.7605,57.6285 C168.5845,57.6285 160.1925,60.3725 153.7125,64.9085 C145.8815,49.1565 127.0775,38.0535 105.1125,38.0535 C76.1195,38.0535 52.6155,57.3905 52.6155,81.2435 C52.6155,82.6715 52.7045,84.0815 52.8685,85.4735 C43.7975,89.0725 37.5385,96.7095 37.5385,105.5505 C37.5385,111.9965 40.8695,117.7995 46.1885,121.8665 C45.8205,123.3315 45.6255,124.8485 45.6255,126.4025 C45.6255,138.7055 57.7475,148.6795 72.7015,148.6795 C87.1605,148.6795 98.9715,139.3545 99.7375,127.6155 C105.1655,132.2935 112.2985,135.1385 120.1175,135.1385 C127.0505,135.1385 133.4475,132.9045 138.5925,129.1375 C139.1245,129.1635 139.6585,129.1805 140.1985,129.1805 C150.8685,129.1805 160.0935,124.1005 164.5055,116.7215 C168.6235,118.0165 173.0885,118.7335 177.7605,118.7335 C189.6055,118.7335 200.1475,114.1645 206.9475,107.0595 C210.7465,108.7305 215.0855,109.6805 219.6945,109.6805 C234.6485,109.6805 246.7715,99.7075 246.7715,87.4045 C246.7715,75.1015 234.6485,65.1285 219.6945,65.1285" id="Fill-10"></path>
                <path d="M877.678,146.1383 C878.177,144.8303 878.616,143.4883 878.982,142.1083 C885.104,119.0543 869.832,94.9923 844.873,88.3643 C825.963,83.3433 806.926,89.7753 796.142,103.2103 C791.728,97.3443 785.207,92.7743 777.308,90.6773 C767.627,88.1063 757.901,89.7853 750.371,94.5073 C747.397,91.6723 743.626,89.4933 739.283,88.3403 C726.41,84.9213 713.414,91.7903 710.257,103.6803 C707.1,115.5713 714.976,127.9823 727.85,131.4003 C731.818,132.4543 735.797,132.5273 739.496,131.7803 C743.526,140.2023 751.429,147.0273 761.626,149.7353 C765.648,150.8033 769.676,151.1313 773.554,150.8203 C775.458,158.9613 782.096,165.9793 791.282,168.4183 C791.746,168.5413 792.211,168.6483 792.675,168.7443 C796.138,173.5613 801.071,177.1823 807.039,178.7673 C813.771,180.5553 820.641,179.4363 826.515,176.1553 C824.162,187.6763 831.936,199.3883 844.383,202.6933 C857.257,206.1113 870.252,199.2433 873.41,187.3523 C873.809,185.8503 874.03,184.3393 874.089,182.8393 C879.712,180.1243 884.069,175.2773 885.724,169.0473 C887.992,160.5033 884.564,151.6903 877.678,146.1383" id="Fill-12"></path>
            </g>
        </g>
    </g>
</svg>