<?xml version="1.0" encoding="UTF-8"?>
<svg width="200px" height="200px" viewBox="0 0 200 200" version="1.1" xmlns="http://www.w3.org/2000/svg" xmlns:xlink="http://www.w3.org/1999/xlink">
    <!-- Generator: Sketch 48.2 (47327) - http://www.bohemiancoding.com/sketch -->
    <title>go</title>
    <desc>Created with Sketch.</desc>
    <defs></defs>
    <g id="Page-1" stroke="none" stroke-width="1" fill="none" fill-rule="evenodd">
        <g id="go">
            <circle id="Oval-Copy-3" fill="#EAFF00" cx="100" cy="100" r="100"></circle>
            <path d="M80.4663086,127.283691 C77.5981302,130.15187 73.8357166,132.65746 69.1789551,134.800537 C64.5221935,136.943614 58.9712236,138.015137 52.5258789,138.015137 C44.9203721,138.015137 38.9826874,135.300076 34.7126465,129.869873 C30.4426056,124.43967 29.1454994,117.535198 30.8212891,109.15625 L33.7700195,94.4609375 C35.5747161,85.4052282 39.4338083,78.3315684 45.3474121,73.2397461 C51.2610159,68.1479238 58.181601,65.6020508 66.109375,65.6020508 C74.0693757,65.6020508 79.8862121,67.7450958 83.5600586,72.03125 C87.2339051,76.3174042 88.6357465,82.0053356 87.765625,89.0952148 L87.6689453,89.3369141 L72.4418945,89.3369141 C72.6674816,85.6308408 72.1679749,82.8432711 70.9433594,80.9741211 C69.7187439,79.1049711 67.4467939,78.1704102 64.1274414,78.1704102 C61.0659027,78.1704102 58.1574845,79.7011566 55.4020996,82.7626953 C52.6467147,85.8242341 50.8017625,89.6913829 49.8671875,94.3642578 L46.918457,109.15625 C45.8549752,114.376979 46.0241629,118.397203 47.4260254,121.217041 C48.8278879,124.036879 51.3657043,125.446777 55.0395508,125.446777 C57.4565551,125.446777 59.4868082,125.205081 61.1303711,124.72168 C62.773934,124.238279 64.1274361,123.593754 65.190918,122.788086 L67.4145508,111.669922 L57.8432617,111.669922 L60.0185547,100.841797 L85.7836914,100.841797 L80.4663086,127.283691 Z M90.0375977,110.364746 C91.3266666,102.211385 94.4042725,95.7339107 99.2705078,90.9321289 C104.136743,86.1303471 110.372521,83.7294922 117.978027,83.7294922 C125.196813,83.7294922 130.554426,86.2270258 134.051025,91.222168 C137.547625,96.2173101 138.6836,102.598106 137.458984,110.364746 L137.313965,111.379883 C135.992669,119.565471 132.89895,126.051001 128.032715,130.83667 C123.16648,135.622338 116.962928,138.015137 109.421875,138.015137 C102.170862,138.015137 96.7890801,135.52566 93.2763672,130.546631 C89.7636543,125.567602 88.6357359,119.17875 89.8925781,111.379883 L90.0375977,110.364746 Z M106.038086,111.379883 C105.264645,115.956078 105.240475,119.444568 105.965576,121.845459 C106.690677,124.24635 108.503403,125.446777 111.403809,125.446777 C114.0464,125.446777 116.157219,124.181897 117.736328,121.6521 C119.315438,119.122302 120.459469,115.698264 121.168457,111.379883 L121.313477,110.364746 C122.022464,105.917458 122.022464,102.461194 121.313477,99.9958496 C120.604489,97.5305053 118.832045,96.2978516 115.996094,96.2978516 C113.321276,96.2978516 111.178231,97.5949577 109.566895,100.189209 C107.955558,102.78346 106.82764,106.175272 106.183105,110.364746 L106.038086,111.379883 Z M161.435547,112.056641 L145.193359,112.056641 L154.28125,66.6171875 L170.523438,66.6171875 L161.435547,112.056641 Z M156.359863,137 L140.311035,137 L143.066406,123.319824 L159.115234,123.319824 L156.359863,137 Z" id="Go!" fill="#000000"></path>
        </g>
    </g>
</svg>